:SAMPLES-PER-SECOND 30
:FULLY-SPECIFIED
:DEGREES
254
root  5.84492 38.5308 -78.1068 173.378 6.92979 178.694
RightUpLeg  -16.1138 -6.57122 0.196623
RightLeg  44.8122 6.09265 -11.6882
RightFoot  -7.86435 -0.0903444 2.34295
RightToes  3.97569e-016 -3.18055e-015 -2.98177e-016
Spine  6.83916 1.40373 1.08399
Spine1  8.40334 1.98205 -2.39323
HEad  -10.2079 2.00387 -1.08072
LeftShoulder1  -3.88251e-019 9.70628e-020 -3.87848e-018
LeftArm  -21.5428 55.332 -64.9675
LeftForeArm  -10.8424 -18.4574 -1.89693
LeftHand  -0.70031 -3.0259 10.331
RightShoulder  8.05048 10.7252 37.6974
RightArm  22.2954 -30.4509 32.0567
RightForeArm  -1.63116 26.0071 -13.9441
RightHand  -1.14639 5.42845 -12.2594
LeftUpLeg  -14.2381 2.2936 -6.53643
LeftLeg  20.9099 -2.98369 5.49667
LeftFoot  -0.748435 -0.593425 5.46596
LeftToes  4.86531e-011 4.41684e-011 -2.86034e-011
255
root  5.92802 38.7022 -78.4888 174.404 6.23613 179.454
RightUpLeg  -16.097 -5.12457 1.79237
RightLeg  34.5061 5.07262 -9.17205
RightFoot  -8.85831 -0.0585391 2.15188
RightToes  3.97569e-016 -3.18055e-015 -2.98177e-016
Spine  7.09377 1.2407 1.19046
Spine1  7.53485 1.68292 -1.50803
HEad  -11.4559 1.91862 -0.562557
LeftShoulder1  -3.88251e-019 9.70628e-020 -3.87848e-018
LeftArm  -15.8752 53.5516 -65.9701
LeftForeArm  -12.8395 -22.3761 -0.177247
LeftHand  -0.700799 -4.03312 9.2322
RightShoulder  8.08432 10.756 37.7937
RightArm  19.2231 -32.4669 31.0936
RightForeArm  -0.783687 20.9975 -10.5279
RightHand  -1.2033 4.86387 -13.5287
LeftUpLeg  -14.236 1.48898 -5.7703
LeftLeg  20.1474 -2.94357 5.34516
LeftFoot  -1.12884 -0.527138 4.99915
LeftToes  4.86531e-011 4.41684e-011 -2.86034e-011
256
root  6.02658 38.7525 -78.8813 174.963 4.99347 -179.883
RightUpLeg  -15.0752 -3.36259 2.5714
RightLeg  24.5759 6.1129 -5.89978
RightFoot  -7.04794 -0.0923939 2.04061
RightToes  3.97569e-016 -3.18055e-015 -2.98177e-016
Spine  7.46559 0.901803 1.69291
Spine1  7.11504 1.22889 -0.715604
HEad  -12.7196 1.704 -0.162428
LeftShoulder1  -3.88251e-019 9.70628e-020 -3.87848e-018
LeftArm  -9.85805 51.5874 -66.9232
LeftForeArm  -15.7882 -25.7481 2.67989
LeftHand  -0.689845 -4.97863 8.26369
RightShoulder  8.13005 10.794 37.9314
RightArm  9.03172 -34.3962 29.461
RightForeArm  6.43 16.6835 -5.46114
RightHand  -1.32927 4.19936 -15.9175
LeftUpLeg  -14.4421 0.702744 -5.14046
LeftLeg  20.6114 -3.37566 5.25828
LeftFoot  -2.1545 -0.462259 4.76608
LeftToes  4.86531e-011 4.41684e-011 -2.86034e-011
257
root  6.16455 38.6582 -79.2648 174.89 3.06396 -179.43
RightUpLeg  -14.1274 -1.73581 2.69099
RightLeg  19.9252 7.77802 -4.18254
RightFoot  -3.76604 -0.112804 1.44515
RightToes  3.97569e-016 -3.18055e-015 -2.98177e-016
Spine  7.85368 0.391461 2.30188
Spine1  7.17663 0.662278 -0.237352
HEad  -13.7675 0.960171 0.128068
LeftShoulder1  -3.88251e-019 9.70628e-020 -3.87848e-018
LeftArm  -6.21096 49.3721 -67.6605
LeftForeArm  -17.2246 -28.3326 4.93159
LeftHand  -0.70118 -5.55492 7.96059
RightShoulder  8.19559 10.8363 38.155
RightArm  2.15488 -36.3957 27.3259
RightForeArm  10.6517 12.0105 -3.15004
RightHand  -1.33639 3.49271 -17.2232
LeftUpLeg  -14.8049 -0.365017 -4.70408
LeftLeg  22.446 -4.25047 5.24285
LeftFoot  -3.47645 -0.394529 4.57698
LeftToes  4.86531e-011 4.41684e-011 -2.86034e-011
258
root  6.30672 38.5626 -79.6065 174.352 1.16977 -178.944
RightUpLeg  -13.3607 -1.73104 2.87329
RightLeg  20.496 8.6642 -3.80195
RightFoot  -2.55036 -0.0268281 0.272364
RightToes  3.97569e-016 -3.18055e-015 -2.98177e-016
Spine  8.04032 -0.0819905 3.50844
Spine1  7.75352 0.356797 -0.436416
HEad  -14.6121 -0.233561 0.476788
LeftShoulder1  -3.88251e-019 9.70628e-020 -3.87848e-018
LeftArm  -5.35014 47.0814 -68.3329
LeftForeArm  -16.8291 -30.3887 5.81756
LeftHand  -0.752312 -5.78246 8.35198
RightShoulder  8.31741 10.896 38.6103
RightArm  0.739593 -38.1541 24.626
RightForeArm  11.5901 7.74881 -2.84019
RightHand  -1.15805 2.73103 -16.2823
LeftUpLeg  -14.7104 -1.54634 -4.16419
LeftLeg  24.2519 -5.08273 5.18745
LeftFoot  -4.71128 -0.328123 4.30155
LeftToes  4.86531e-011 4.41684e-011 -2.86034e-011
259
root  6.42488 38.5753 -79.9613 173.781 0.230148 -178.591
RightUpLeg  -11.9671 -3.70644 3.12732
RightLeg  21.2096 9.43665 -3.5103
RightFoot  -3.43389 0.0405231 -0.42116
RightToes  3.97569e-016 -3.18055e-015 -2.98177e-016
Spine  7.84479 -0.218632 4.90942
Spine1  8.50316 0.605307 -1.45463
HEad  -15.0962 -1.24024 0.909604
LeftShoulder1  -3.88251e-019 9.70628e-020 -3.87848e-018
LeftArm  -5.97715 45.514 -69.3192
LeftForeArm  -15.9992 -32.0365 6.26078
LeftHand  -0.839715 -5.98235 9.12701
RightShoulder  8.44839 10.9559 39.1054
RightArm  0.724621 -39.7348 21.3085
RightForeArm  14.3272 4.49484 -2.89405
RightHand  -0.876487 2.04584 -13.4699
LeftUpLeg  -13.8416 -2.2911 -3.69293
LeftLeg  24.8074 -5.39506 5.12937
LeftFoot  -5.66625 -0.269603 3.91812
LeftToes  4.86531e-011 4.41684e-011 -2.86034e-011
